<svg xmlns="http://www.w3.org/2000/svg" xmlns:xlink="http://www.w3.org/1999/xlink" width="16" height="16" viewBox="0 0 16 16">
  <defs>
    <style>
      .cls-1, .cls-3 {
        fill: #9c9dfe;
      }

      .cls-1 {
        stroke: #707070;
      }

      .cls-2 {
        clip-path: url(#clip-path);
      }
    </style>
    <clipPath id="clip-path">
      <rect id="Rectangle_18667" data-name="Rectangle 18667" class="cls-1" width="16" height="16" transform="translate(1489 734)"/>
    </clipPath>
  </defs>
  <g id="Mask_Group_484" data-name="Mask Group 484" class="cls-2" transform="translate(-1489 -734)">
    <path id="icons8_home" class="cls-3" d="M12.553,1.275a.629.629,0,0,0-.628.628v3L8.611,1.589a.645.645,0,0,0-.9,0L.353,8.964a.624.624,0,0,0,.883.883L8.159,2.922,15.1,9.866a.654.654,0,0,0,.451.2.61.61,0,0,0,.432-.2.622.622,0,0,0,0-.883L13.808,6.806V1.9a.629.629,0,0,0-.628-.628ZM8.159,4.08l-6.9,6.9v3.452a1.883,1.883,0,0,0,1.883,1.883H13.18a1.883,1.883,0,0,0,1.883-1.883V10.984ZM6.9,10.042H9.415a.629.629,0,0,1,.628.628v3.766a.629.629,0,0,1-.628.628H6.9a.629.629,0,0,1-.628-.628V10.67A.629.629,0,0,1,6.9,10.042Z" transform="translate(1488.83 733.203)"/>
  </g>
</svg>
